<svg xmlns="http://www.w3.org/2000/svg" width="1600" height="1060" viewBox="0 0 1600 1060">
<defs>
  <linearGradient id="bg" x1="0" y1="0" x2="1" y2="1"><stop offset="0" stop-color="#06101a"/><stop offset="1" stop-color="#0a2030"/></linearGradient>
  <linearGradient id="accent" x1="0" y1="0" x2="1" y2="0"><stop offset="0" stop-color="#16d8c0"/><stop offset="1" stop-color="#6dde91"/></linearGradient>
  <filter id="shadow"><feDropShadow dx="0" dy="5" stdDeviation="9" flood-opacity="0.25"/></filter>
</defs>
<rect width="100%" height="100%" rx="26" fill="url(#bg)"/>
<text x="64" y="68" font-family="Inter,Arial,sans-serif" font-size="42" font-weight="700" fill="#f2f7f9">EcoTwin AI — System Architecture</text>
<text x="64" y="108" font-family="Inter,Arial,sans-serif" font-size="21" fill="#9bb2bf">Reusable ML lifecycle + verified Building59 operational intelligence path</text>
<rect x="64" y="130" width="1472" height="3" rx="2" fill="url(#accent)"/>
<text x="66" y="194" font-family="Inter,Arial,sans-serif" font-size="23" font-weight="700" fill="#6dde91">1 · Data Layer</text><g filter="url(#shadow)"><rect x="330.0" y="162" width="385.3333333333333" height="100" rx="15" fill="#0c2230" stroke="#1d6075" stroke-width="1.5"/></g>
<rect x="330.0" y="162" width="6" height="100" rx="3" fill="#16d8c0"/>
<text x="354.0" y="196" font-family="Inter,Arial,sans-serif" font-size="22" font-weight="700" fill="#f2f7f9">Building Telemetry</text><text x="354.0" y="223" font-family="Inter,Arial,sans-serif" font-size="16" fill="#9bb2bf">Whole-building power, subsystem loads and environmental context</text><rect x="587.3333333333333" y="180" width="110" height="30" rx="15" fill="#0b322c" stroke="#2bc895"/>
<text x="642.3333333333333" y="201" text-anchor="middle" font-family="Inter,Arial,sans-serif" font-size="13" font-weight="700" fill="#79e6bd">INPUT</text><path d="M719.3333333333333 212 L733.3333333333333 212" stroke="#2fc8e0" stroke-width="3"/><g filter="url(#shadow)"><rect x="737.3333333333333" y="162" width="385.3333333333333" height="100" rx="15" fill="#0c2230" stroke="#1d6075" stroke-width="1.5"/></g>
<rect x="737.3333333333333" y="162" width="6" height="100" rx="3" fill="#16d8c0"/>
<text x="761.3333333333333" y="196" font-family="Inter,Arial,sans-serif" font-size="22" font-weight="700" fill="#f2f7f9">Semantic-Safe Intake</text><text x="761.3333333333333" y="223" font-family="Inter,Arial,sans-serif" font-size="16" fill="#9bb2bf">Data contract, safe alias resolution and unit normalization</text><rect x="994.6666666666665" y="180" width="110" height="30" rx="15" fill="#0b322c" stroke="#2bc895"/>
<text x="1049.6666666666665" y="201" text-anchor="middle" font-family="Inter,Arial,sans-serif" font-size="13" font-weight="700" fill="#79e6bd">SAFETY</text><path d="M1126.6666666666665 212 L1140.6666666666665 212" stroke="#2fc8e0" stroke-width="3"/><g filter="url(#shadow)"><rect x="1144.6666666666665" y="162" width="385.3333333333333" height="100" rx="15" fill="#0c2230" stroke="#1d6075" stroke-width="1.5"/></g>
<rect x="1144.6666666666665" y="162" width="6" height="100" rx="3" fill="#16d8c0"/>
<text x="1168.6666666666665" y="196" font-family="Inter,Arial,sans-serif" font-size="22" font-weight="700" fill="#f2f7f9">Data Quality</text><text x="1168.6666666666665" y="223" font-family="Inter,Arial,sans-serif" font-size="16" fill="#9bb2bf">Timestamp, duplicate, missingness and sampling checks</text><rect x="1401.9999999999998" y="180" width="110" height="30" rx="15" fill="#0b322c" stroke="#2bc895"/>
<text x="1456.9999999999998" y="201" text-anchor="middle" font-family="Inter,Arial,sans-serif" font-size="13" font-weight="700" fill="#79e6bd">QUALITY</text><path d="M800 272 L800 298" stroke="#2fc8e0" stroke-width="4" fill="none"/>
<path d="M792 286 L800 298 L808 286" fill="#2fc8e0"/><text x="66" y="374" font-family="Inter,Arial,sans-serif" font-size="23" font-weight="700" fill="#6dde91">2 · ML Lifecycle</text><g filter="url(#shadow)"><rect x="330.0" y="342" width="283.5" height="100" rx="15" fill="#0c2230" stroke="#1d6075" stroke-width="1.5"/></g>
<rect x="330.0" y="342" width="6" height="100" rx="3" fill="#2fc8e0"/>
<text x="354.0" y="376" font-family="Inter,Arial,sans-serif" font-size="22" font-weight="700" fill="#f2f7f9">Feature Profiles</text><text x="354.0" y="403" font-family="Inter,Arial,sans-serif" font-size="16" fill="#9bb2bf">CORE / CONTEXT / FULL selection from available signals</text><rect x="485.5" y="360" width="110" height="30" rx="15" fill="#0b322c" stroke="#2bc895"/>
<text x="540.5" y="381" text-anchor="middle" font-family="Inter,Arial,sans-serif" font-size="13" font-weight="700" fill="#79e6bd">DYNAMIC</text><path d="M617.5 392 L631.5 392" stroke="#2fc8e0" stroke-width="3"/><g filter="url(#shadow)"><rect x="635.5" y="342" width="283.5" height="100" rx="15" fill="#0c2230" stroke="#1d6075" stroke-width="1.5"/></g>
<rect x="635.5" y="342" width="6" height="100" rx="3" fill="#2fc8e0"/>
<text x="659.5" y="376" font-family="Inter,Arial,sans-serif" font-size="22" font-weight="700" fill="#f2f7f9">Residual LSTM Training</text><text x="659.5" y="403" font-family="Inter,Arial,sans-serif" font-size="16" fill="#9bb2bf">Chronological splits, train-only scaling, early stopping</text><rect x="787.0" y="360" width="114" height="30" rx="15" fill="#0b322c" stroke="#2bc895"/>
<text x="844.0" y="381" text-anchor="middle" font-family="Inter,Arial,sans-serif" font-size="13" font-weight="700" fill="#79e6bd">FORECAST</text><path d="M923.0 392 L937.0 392" stroke="#2fc8e0" stroke-width="3"/><g filter="url(#shadow)"><rect x="941.0" y="342" width="283.5" height="100" rx="15" fill="#0c2230" stroke="#1d6075" stroke-width="1.5"/></g>
<rect x="941.0" y="342" width="6" height="100" rx="3" fill="#2fc8e0"/>
<text x="965.0" y="376" font-family="Inter,Arial,sans-serif" font-size="22" font-weight="700" fill="#f2f7f9">Validation + Baseline Gate</text><text x="965.0" y="403" font-family="Inter,Arial,sans-serif" font-size="16" fill="#9bb2bf">Persistence and seasonal baseline comparison</text><rect x="1082.5" y="360" width="124" height="30" rx="15" fill="#0b322c" stroke="#2bc895"/>
<text x="1144.5" y="381" text-anchor="middle" font-family="Inter,Arial,sans-serif" font-size="13" font-weight="700" fill="#79e6bd">SELECTION</text><path d="M1228.5 392 L1242.5 392" stroke="#2fc8e0" stroke-width="3"/><g filter="url(#shadow)"><rect x="1246.5" y="342" width="283.5" height="100" rx="15" fill="#0c2230" stroke="#1d6075" stroke-width="1.5"/></g>
<rect x="1246.5" y="342" width="6" height="100" rx="3" fill="#2fc8e0"/>
<text x="1270.5" y="376" font-family="Inter,Arial,sans-serif" font-size="22" font-weight="700" fill="#f2f7f9">Model Registry</text><text x="1270.5" y="403" font-family="Inter,Arial,sans-serif" font-size="16" fill="#9bb2bf">Versioned artifacts, SHA-256 integrity, production pointer</text><rect x="1398.0" y="360" width="114" height="30" rx="15" fill="#0b322c" stroke="#2bc895"/>
<text x="1455.0" y="381" text-anchor="middle" font-family="Inter,Arial,sans-serif" font-size="13" font-weight="700" fill="#79e6bd">REGISTRY</text><path d="M800 452 L800 478" stroke="#2fc8e0" stroke-width="4" fill="none"/>
<path d="M792 466 L800 478 L808 466" fill="#2fc8e0"/><text x="66" y="554" font-family="Inter,Arial,sans-serif" font-size="23" font-weight="700" fill="#6dde91">3 · Operational Intelligence</text><g filter="url(#shadow)"><rect x="330.0" y="522" width="385.3333333333333" height="100" rx="15" fill="#0c2230" stroke="#1d6075" stroke-width="1.5"/></g>
<rect x="330.0" y="522" width="6" height="100" rx="3" fill="#4e9cff"/>
<text x="354.0" y="556" font-family="Inter,Arial,sans-serif" font-size="22" font-weight="700" fill="#f2f7f9">Forecast + Uncertainty</text><text x="354.0" y="583" font-family="Inter,Arial,sans-serif" font-size="16" fill="#9bb2bf">30-minute forecast and adaptive error boundary</text><rect x="563.3333333333333" y="540" width="134" height="30" rx="15" fill="#0b322c" stroke="#2bc895"/>
<text x="630.3333333333333" y="561" text-anchor="middle" font-family="Inter,Arial,sans-serif" font-size="13" font-weight="700" fill="#79e6bd">BUILDING59</text><path d="M719.3333333333333 572 L733.3333333333333 572" stroke="#2fc8e0" stroke-width="3"/><g filter="url(#shadow)"><rect x="737.3333333333333" y="522" width="385.3333333333333" height="100" rx="15" fill="#0c2230" stroke="#1d6075" stroke-width="1.5"/></g>
<rect x="737.3333333333333" y="522" width="6" height="100" rx="3" fill="#4e9cff"/>
<text x="761.3333333333333" y="556" font-family="Inter,Arial,sans-serif" font-size="22" font-weight="700" fill="#f2f7f9">Anomaly + Root Cause</text><text x="761.3333333333333" y="583" font-family="Inter,Arial,sans-serif" font-size="16" fill="#9bb2bf">Residual-based alarm and robust subsystem attribution</text><rect x="960.6666666666665" y="540" width="144" height="30" rx="15" fill="#0b322c" stroke="#2bc895"/>
<text x="1032.6666666666665" y="561" text-anchor="middle" font-family="Inter,Arial,sans-serif" font-size="13" font-weight="700" fill="#79e6bd">EXPLAINABLE</text><path d="M1126.6666666666665 572 L1140.6666666666665 572" stroke="#2fc8e0" stroke-width="3"/><g filter="url(#shadow)"><rect x="1144.6666666666665" y="522" width="385.3333333333333" height="100" rx="15" fill="#0c2230" stroke="#1d6075" stroke-width="1.5"/></g>
<rect x="1144.6666666666665" y="522" width="6" height="100" rx="3" fill="#4e9cff"/>
<text x="1168.6666666666665" y="556" font-family="Inter,Arial,sans-serif" font-size="22" font-weight="700" fill="#f2f7f9">Recommendation + Incidents</text><text x="1168.6666666666665" y="583" font-family="Inter,Arial,sans-serif" font-size="16" fill="#9bb2bf">Severity, operator guidance and alarm consolidation</text><rect x="1377.9999999999998" y="540" width="134" height="30" rx="15" fill="#0b322c" stroke="#2bc895"/>
<text x="1444.9999999999998" y="561" text-anchor="middle" font-family="Inter,Arial,sans-serif" font-size="13" font-weight="700" fill="#79e6bd">OPERATIONS</text><path d="M800 632 L800 658" stroke="#2fc8e0" stroke-width="4" fill="none"/>
<path d="M792 646 L800 658 L808 646" fill="#2fc8e0"/><text x="66" y="734" font-family="Inter,Arial,sans-serif" font-size="23" font-weight="700" fill="#6dde91">4 · Serving &amp; Delivery</text><g filter="url(#shadow)"><rect x="330.0" y="702" width="385.3333333333333" height="100" rx="15" fill="#0c2230" stroke="#1d6075" stroke-width="1.5"/></g>
<rect x="330.0" y="702" width="6" height="100" rx="3" fill="#6dde91"/>
<text x="354.0" y="736" font-family="Inter,Arial,sans-serif" font-size="22" font-weight="700" fill="#f2f7f9">FastAPI</text><text x="354.0" y="763" font-family="Inter,Arial,sans-serif" font-size="16" fill="#9bb2bf">/health · /status · /forecast · /outcome · /incidents</text><rect x="587.3333333333333" y="720" width="110" height="30" rx="15" fill="#0b322c" stroke="#2bc895"/>
<text x="642.3333333333333" y="741" text-anchor="middle" font-family="Inter,Arial,sans-serif" font-size="13" font-weight="700" fill="#79e6bd">API</text><path d="M719.3333333333333 752 L733.3333333333333 752" stroke="#2fc8e0" stroke-width="3"/><g filter="url(#shadow)"><rect x="737.3333333333333" y="702" width="385.3333333333333" height="100" rx="15" fill="#0c2230" stroke="#1d6075" stroke-width="1.5"/></g>
<rect x="737.3333333333333" y="702" width="6" height="100" rx="3" fill="#6dde91"/>
<text x="761.3333333333333" y="736" font-family="Inter,Arial,sans-serif" font-size="22" font-weight="700" fill="#f2f7f9">Docker</text><text x="761.3333333333333" y="763" font-family="Inter,Arial,sans-serif" font-size="16" fill="#9bb2bf">Verified final image with src + models + config</text><rect x="980.6666666666665" y="720" width="124" height="30" rx="15" fill="#0b322c" stroke="#2bc895"/>
<text x="1042.6666666666665" y="741" text-anchor="middle" font-family="Inter,Arial,sans-serif" font-size="13" font-weight="700" fill="#79e6bd">CONTAINER</text><path d="M1126.6666666666665 752 L1140.6666666666665 752" stroke="#2fc8e0" stroke-width="3"/><g filter="url(#shadow)"><rect x="1144.6666666666665" y="702" width="385.3333333333333" height="100" rx="15" fill="#0c2230" stroke="#1d6075" stroke-width="1.5"/></g>
<rect x="1144.6666666666665" y="702" width="6" height="100" rx="3" fill="#6dde91"/>
<text x="1168.6666666666665" y="736" font-family="Inter,Arial,sans-serif" font-size="22" font-weight="700" fill="#f2f7f9">GitHub Actions</text><text x="1168.6666666666665" y="763" font-family="Inter,Arial,sans-serif" font-size="16" fill="#9bb2bf">Automated tests + Docker build</text><rect x="1401.9999999999998" y="720" width="110" height="30" rx="15" fill="#0b322c" stroke="#2bc895"/>
<text x="1456.9999999999998" y="741" text-anchor="middle" font-family="Inter,Arial,sans-serif" font-size="13" font-weight="700" fill="#79e6bd">CI/CD</text><rect x="66" y="956" width="1468" height="60" rx="16" fill="#0b2c24" stroke="#2bc895"/>
<text x="800" y="993" text-anchor="middle" font-family="Inter,Arial,sans-serif" font-size="16" font-weight="600" fill="#89e1b8">Architecture boundary: the reusable registry forecaster and Building59 operational API share the repository, but are not yet one universal multi-building serving layer.</text></svg>